<?xml version="1.0" encoding="utf-8"?>
<!-- Generator: Adobe Illustrator 20.1.0, SVG Export Plug-In . SVG Version: 6.00 Build 0)  -->
<svg version="1.1" id="Calque_1" xmlns="http://www.w3.org/2000/svg" xmlns:xlink="http://www.w3.org/1999/xlink" x="0px" y="0px"
	 viewBox="0 0 83 28.2" style="enable-background:new 0 0 83 28.2;" xml:space="preserve">
<style type="text/css">
	.st0{fill:#FFFFFF;}
</style>
<g>
	<path class="st0" d="M5.5,10.1H7l1.9,5.3l0.7,2h0.1l0.7-2l1.9-5.3h1.5v9.8h-1.2v-5.4c0-0.9,0.1-2,0.2-2.9h-0.1l-0.8,2.2L10,18.9
		H9.2l-1.9-5.1l-0.8-2.2l0,0c0.1,0.9,0.2,2,0.2,2.9v5.4H5.5V10.1z"/>
	<path class="st0" d="M17.1,10.1h5.7v1.1h-4.4v3.1h3.7v1.1h-3.7V19H23v1.1h-5.8v-10H17.1z"/>
	<path class="st0" d="M25.8,10.1h1.3l3.6,6.2l1.1,2h0.1c-0.1-1-0.2-2.1-0.2-3.1v-5.1h1.2v9.8h-1.3L28,13.7l-1.1-2h-0.1
		c0.1,1,0.2,2,0.2,3.1v5.1h-1.2V10.1z"/>
	<path class="st0" d="M36.2,10.1h1.3v5.8c0,2.4,1,3.1,2.3,3.1s2.3-0.8,2.3-3.1v-5.8h1.2v5.8c0,3.2-1.5,4.2-3.5,4.2s-3.5-1.1-3.5-4.2
		L36.2,10.1L36.2,10.1z"/>
</g>
<g>
	<rect x="53.5" y="6" class="st0" width="25" height="1"/>
	<rect x="53.5" y="11" class="st0" width="25" height="1"/>
	<rect x="53.5" y="16" class="st0" width="25" height="1"/>
	<rect x="53.5" y="21" class="st0" width="25" height="1"/>
</g>
<g>
	<path class="st0" d="M5.5,10.1H7l1.9,5.3l0.7,2h0.1l0.7-2l1.9-5.3h1.5v9.8h-1.2v-5.4c0-0.9,0.1-2,0.2-2.9h-0.1l-0.8,2.2L10,18.9
		H9.2l-1.9-5.1l-0.8-2.2l0,0c0.1,0.9,0.2,2,0.2,2.9v5.4H5.5V10.1z"/>
	<path class="st0" d="M17.1,10.1h5.7v1.1h-4.4v3.1h3.7v1.1h-3.7V19H23v1.1h-5.8v-10H17.1z"/>
	<path class="st0" d="M25.8,10.1h1.3l3.6,6.2l1.1,2h0.1c-0.1-1-0.2-2.1-0.2-3.1v-5.1h1.2v9.8h-1.3L28,13.7l-1.1-2h-0.1
		c0.1,1,0.2,2,0.2,3.1v5.1h-1.2V10.1z"/>
	<path class="st0" d="M36.2,10.1h1.3v5.8c0,2.4,1,3.1,2.3,3.1s2.3-0.8,2.3-3.1v-5.8h1.2v5.8c0,3.2-1.5,4.2-3.5,4.2s-3.5-1.1-3.5-4.2
		L36.2,10.1L36.2,10.1z"/>
</g>
<g>
	<rect x="53.5" y="6" class="st0" width="25" height="1"/>
	<rect x="53.5" y="11" class="st0" width="25" height="1"/>
	<rect x="53.5" y="16" class="st0" width="25" height="1"/>
	<rect x="53.5" y="21" class="st0" width="25" height="1"/>
</g>
</svg>
