<?xml version="1.0" encoding="utf-8"?>
<!-- Generator: Adobe Illustrator 20.1.0, SVG Export Plug-In . SVG Version: 6.00 Build 0)  -->
<svg version="1.1" id="Calque_1" xmlns="http://www.w3.org/2000/svg" xmlns:xlink="http://www.w3.org/1999/xlink" x="0px" y="0px"
	 viewBox="0 0 23.5 23.4" style="enable-background:new 0 0 23.5 23.4;" xml:space="preserve">
<style type="text/css">
	.st0{fill:#F09201;}
	.st1{fill:#304148;}
</style>
<g>
	<g>
		<circle class="st0" cx="11.8" cy="11.7" r="11.4"/>
	</g>
	<path class="st1" d="M16.2,7.2c0.5,0.5,0.7,1.4,0.3,1.9l-3.4,3.4c1.1,0.4,2.3,0.2,3.1-0.6l1.7-1.7c1.1-1.1,0.9-3.1-0.3-4.4
		c-1.2-1.3-3.3-1.4-4.4-0.3l-1.7,1.7c-0.5,0.5-0.8,1.3-0.8,2.1c0,0.3,0.1,0.7,0.2,1L14.4,7C14.8,6.5,15.7,6.7,16.2,7.2z M6,17.5
		c1.3,1.2,3.3,1.4,4.4,0.3l1.7-1.7c0.8-0.8,1-2,0.6-3.1l-3.4,3.4c-0.4,0.4-1.3,0.3-1.9-0.3c-0.5-0.5-0.7-1.4-0.3-1.9l3.4-3.4
		c-0.3-0.1-0.7-0.2-1-0.2c-0.8,0-1.6,0.2-2.1,0.8l-1.7,1.7C4.5,14.2,4.7,16.3,6,17.5z M9.8,14.5c-0.2,0-0.4-0.1-0.6-0.3
		C9.1,14.1,9,13.9,9,13.7c0-0.2,0-0.4,0.2-0.5l3.9-3.9c0.1-0.1,0.3-0.2,0.4-0.2c0.2,0,0.4,0.1,0.6,0.3c0.2,0.2,0.3,0.4,0.3,0.6
		c0,0.2-0.1,0.3-0.2,0.4l-3.9,3.9C10.2,14.4,10,14.5,9.8,14.5L9.8,14.5z"/>
</g>
</svg>
