<?xml version="1.0" encoding="utf-8"?>
<!-- Generator: Adobe Illustrator 20.1.0, SVG Export Plug-In . SVG Version: 6.00 Build 0)  -->
<svg version="1.1" id="Calque_1" xmlns="http://www.w3.org/2000/svg" xmlns:xlink="http://www.w3.org/1999/xlink" x="0px" y="0px"
	 viewBox="0 0 23.5 23.4" style="enable-background:new 0 0 23.5 23.4;" xml:space="preserve">
<style type="text/css">
	.st0{fill:#304148;}
</style>
<path class="st0" d="M12.2,7.3c-0.3-0.2-0.7-0.2-0.8,0L5,12.8c-0.4,0.2-0.6,0.7-0.6,1v6.5c0,0.3,0.3,0.6,0.6,0.6h3.5
	c0.3,0,0.6-0.3,0.6-0.6v-5.5c0-0.3,0.3-0.6,0.6-0.6h4c0.3,0,0.6,0.3,0.6,0.6v5.5c0,0.3,0.3,0.6,0.6,0.6h3.4c0.3,0,0.6-0.3,0.6-0.6
	v-6.5c0-0.3-0.2-0.8-0.5-1L12.2,7.3z M21.7,10.6l-9.1-7.8c-0.5-0.4-1.2-0.4-1.7,0l-9.1,7.8c-0.5,0.5-0.6,1.3-0.1,1.8
	C2,12.7,3,13,3.6,12.5l8.2-7l8.2,7c0.5,0.5,1.3,0.4,1.8-0.1C22.2,11.9,22.2,11.1,21.7,10.6z"/>
</svg>
