<?xml version="1.0" encoding="utf-8"?>
<!-- Generator: Adobe Illustrator 20.1.0, SVG Export Plug-In . SVG Version: 6.00 Build 0)  -->
<svg version="1.1" id="Calque_1" xmlns="http://www.w3.org/2000/svg" xmlns:xlink="http://www.w3.org/1999/xlink" x="0px" y="0px"
	 viewBox="0 0 23.5 23.4" style="enable-background:new 0 0 23.5 23.4;" xml:space="preserve">
<style type="text/css">
	.st0{fill:#304148;}
</style>
<g>
	<path class="st0" d="M11.8,12.3c0.3,0,0.6-0.1,0.9-0.3L19,7.7c-0.1-0.1-0.3-0.1-0.4-0.1H5c-0.2,0-0.3,0-0.5,0.1l6.3,4.3
		C11.1,12.2,11.4,12.3,11.8,12.3z M19.4,8.5L19.4,8.5L14,12.1l5.4,4c0.1-0.2,0.1-0.3,0.1-0.5l0-6.7C19.5,8.7,19.4,8.6,19.4,8.5z
		 M4.2,8.5L4.2,8.5C4.1,8.6,4.1,8.7,4.1,8.9l0,6.7c0,0.2,0,0.4,0.1,0.6l5.4-4L4.2,8.5z M13.3,12.6L13,12.8c-0.3,0.2-0.8,0.4-1.2,0.4
		h0c-0.5,0-0.9-0.1-1.3-0.4l-0.2-0.2l-5.5,4.1c0.2,0.1,0.4,0.2,0.7,0.2h12.8c0.3,0,0.5-0.1,0.7-0.2L13.3,12.6
		C13.4,12.6,13.3,12.6,13.3,12.6z"/>
</g>
</svg>
