<?xml version="1.0" encoding="utf-8"?>
<!-- Generator: Adobe Illustrator 20.1.0, SVG Export Plug-In . SVG Version: 6.00 Build 0)  -->
<svg version="1.1" id="Calque_1" xmlns="http://www.w3.org/2000/svg" xmlns:xlink="http://www.w3.org/1999/xlink" x="0px" y="0px"
	 viewBox="0 0 23.5 23.4" style="enable-background:new 0 0 23.5 23.4;" xml:space="preserve">
<style type="text/css">
	.st0{fill:#3B5D73;}
	.st1{fill:#FFFFFF;}
</style>
<g>
	<g>
		<circle class="st0" cx="11.8" cy="11.7" r="11.4"/>
	</g>
	<path class="st1" d="M6.6,12.3v4.5c0,0.8,0.6,1.5,1.5,1.5h7.4c0.8,0,1.5-0.7,1.5-1.5v-4.5c0-0.8-0.6-1.5-1.5-1.5H8.1
		C7.3,10.9,6.6,11.5,6.6,12.3z M10.7,13.8c0-0.6,0.5-1,1-1c0.6,0,1,0.5,1,1c0,0.3-0.2,0.6-0.4,0.8v1.2c0,0.3-0.3,0.6-0.6,0.6
		c-0.3,0-0.6-0.3-0.6-0.6v-1.2C10.9,14.5,10.7,14.2,10.7,13.8z M13.8,10.3h1.6V8.7c0-2-1.6-3.6-3.7-3.6c-2,0-3.6,1.6-3.6,3.6v1.6
		h1.6V8.7c0-1.1,0.9-2,2-2s2,0.9,2,2V10.3z"/>
</g>
</svg>
